<svg width="28" height="33" viewBox="0 0 28 33" fill="none" xmlns="http://www.w3.org/2000/svg">
<path d="M27.7429 8.70116L13.9933 0.762825L0.243652 8.70116V24.5778L13.9933 32.5162L27.7429 24.5778V8.70116Z" fill="#1644F5"/>
<path d="M20.7834 9.84948C19.4211 8.48728 17.6856 7.55961 15.7962 7.18378C13.9067 6.80795 11.9483 7.00084 10.1685 7.73806C8.38867 8.47528 6.86745 9.72371 5.79717 11.3255C4.7269 12.9273 4.15564 14.8105 4.15564 16.7369C4.15564 18.6634 4.7269 20.5465 5.79718 22.1483C6.86745 23.7501 8.38868 24.9985 10.1685 25.7358C11.9483 26.473 13.9067 26.6659 15.7962 26.29C17.6856 25.9142 19.4212 24.9865 20.7834 23.6243L16.8362 19.6771C16.2546 20.2587 15.5137 20.6547 14.7071 20.8151C13.9005 20.9756 13.0645 20.8932 12.3047 20.5785C11.5449 20.2638 10.8955 19.7308 10.4386 19.047C9.98168 18.3632 9.73781 17.5593 9.73781 16.7369C9.73781 15.9145 9.98168 15.1106 10.4386 14.4268C10.8955 13.743 11.5449 13.21 12.3047 12.8953C13.0645 12.5806 13.9005 12.4982 14.7071 12.6587C15.5137 12.8191 16.2546 13.2151 16.8362 13.7967L20.7834 9.84948Z" fill="white"/>
<path d="M15.525 18.9424H14.6631V17.8342H15.525V16.8491H16.7563V17.8342H17.6183V18.9424H16.7563V19.9274H15.525V18.9424ZM19.9963 18.9424H19.1344V17.8342H19.9963V16.8491H21.2276V17.8342H22.0895V18.9424H21.2276V19.9274H19.9963V18.9424Z" fill="white"/>
</svg>
