<svg width="32" height="31" viewBox="0 0 32 31" fill="none" xmlns="http://www.w3.org/2000/svg">
<path d="M7.52006 22.869V18.5942C7.54102 17.4416 8.37503 15.1114 11.5435 15.0108C14.7119 14.9103 18.4796 14.9689 19.9674 15.0108C20.7774 15.0687 22.2837 14.3152 23.0789 12.4962V3.38072C22.5866 2.45869 20.8727 0.589488 17.9557 0.488903C15.0388 0.388318 12.8008 0.446993 12.0464 0.488903C10.9358 0.845141 8.67679 1.92224 8.52591 3.38072C8.37503 4.8392 8.46305 6.58686 8.52591 7.27838H15.8183V8.1585H5.19404C3.72718 8.32614 0.768306 9.6547 0.667721 13.6278C0.567136 17.6009 0.62581 18.1332 0.667721 17.9027C0.814406 19.3486 1.74901 22.3661 4.31392 22.869H7.52006Z" fill="#3970A2" stroke="black" stroke-width="0.188597"/>
<path d="M24.3361 8.40996V12.6848C24.3152 13.8374 23.4812 16.1676 20.3127 16.2682C17.1443 16.3687 13.3766 16.3101 11.8888 16.2682C11.0788 16.2103 9.57247 16.9638 8.77731 18.7828V27.8983C9.26962 28.8203 10.9835 30.6895 13.9005 30.7901C16.8174 30.8907 19.0554 30.832 19.8098 30.7901C20.9204 30.4339 23.1794 29.3568 23.3303 27.8983C23.4812 26.4398 23.3932 24.6921 23.3303 24.0006H16.0379V23.1205H26.6622C28.129 22.9529 31.0879 21.6243 31.1885 17.6512C31.2891 13.6781 31.2304 13.1458 31.1885 13.3763C31.0418 11.9304 30.1072 8.91289 27.5423 8.40996H24.3361Z" fill="#FED141" stroke="black" stroke-width="0.188597"/>
<circle cx="11.732" cy="4.07222" r="1.44591" fill="white" stroke="black" stroke-width="0.377193"/>
<circle cx="19.9046" cy="26.9553" r="1.44591" fill="white" stroke="black" stroke-width="0.377193"/>
</svg>
