<svg width="15" height="15" viewBox="0 0 15 15" fill="none" xmlns="http://www.w3.org/2000/svg">
<path d="M3.58206 4.19648L3.95746 5.79542L3.58206 7.3874L4.97939 8.24944L5.83448 9.64678L7.43342 9.27137L9.03236 9.64678L9.88744 8.24944L11.2848 7.3874L10.9094 5.79542L11.2848 4.19648L9.8944 3.33444L9.03236 1.9371L7.43342 2.31946L5.84143 1.94406L4.97244 3.33444L3.58206 4.19648ZM7.44037 8.60399C6.70286 8.60399 5.99557 8.31102 5.47407 7.78952C4.95258 7.26803 4.6596 6.56073 4.6596 5.82322C4.6596 5.08572 4.95258 4.37842 5.47407 3.85693C5.99557 3.33543 6.70286 3.04246 7.44037 3.04246C8.96979 3.04246 10.2142 4.28685 10.2142 5.81627C10.2142 7.3596 8.96979 8.60399 7.44037 8.60399ZM7.42647 7.9088C6.27245 7.9088 5.34784 6.97724 5.34784 5.82322C5.34784 4.67616 6.27245 3.73765 7.42647 3.73765C8.58048 3.73765 9.51899 4.67616 9.51899 5.82322C9.51899 6.97724 8.58048 7.9088 7.42647 7.9088ZM10.096 8.67351L9.20616 10.2307L7.76016 9.904L9.51899 13.957L10.4923 12.4275H12.2302L10.096 8.67351ZM4.74303 8.72217L5.61202 10.2864L7.09277 9.9318L5.34784 13.957L4.37458 12.4275H2.6366L4.74303 8.72217Z" fill="black"/>
</svg>
