<svg width="12" height="12" viewBox="0 0 12 12" fill="none" xmlns="http://www.w3.org/2000/svg">
<path d="M4.21113 2.20982C3.84471 2.67149 3.64427 3.24302 3.64208 3.83242C3.64208 3.94022 3.59926 4.04361 3.52303 4.11983C3.44681 4.19606 3.34342 4.23888 3.23562 4.23888C1.7626 4.23888 1.20331 5.26642 1.20331 5.86473C1.20331 6.21185 1.2911 6.611 1.56018 6.91829C1.8195 7.21419 2.30401 7.49059 3.23562 7.49059H3.64208C3.64208 7.76779 3.66728 8.04012 3.71525 8.30351H3.23562C2.13492 8.30351 1.40003 7.97021 0.948048 7.45319C0.505816 6.94755 0.390381 6.33054 0.390381 5.86473C0.390381 4.90711 1.17485 3.617 2.85192 3.44547C2.9251 2.80483 3.1782 2.19801 3.58193 1.69524C4.11602 1.04165 4.94276 0.580719 6.08086 0.580719C6.77185 0.580719 7.57745 0.808338 8.21885 1.33349C8.7375 1.75784 9.13583 2.36834 9.27647 3.17233C8.99302 3.09624 8.70275 3.04832 8.40989 3.02925C8.28834 2.60974 8.04159 2.23735 7.70264 1.96188C7.24109 1.59592 6.66989 1.39579 6.08086 1.39364C5.18664 1.39364 4.59077 1.74564 4.21113 2.20982ZM11.7713 7.49059C11.7713 7.97098 11.6767 8.44668 11.4929 8.8905C11.309 9.33433 11.0396 9.73761 10.6999 10.0773C10.3602 10.417 9.95692 10.6864 9.51309 10.8703C9.06926 11.0541 8.59357 11.1487 8.11317 11.1487C7.63278 11.1487 7.15708 11.0541 6.71325 10.8703C6.26942 10.6864 5.86615 10.417 5.52646 10.0773C5.18677 9.73761 4.91731 9.33433 4.73347 8.8905C4.54963 8.44668 4.45501 7.97098 4.45501 7.49059C4.45501 6.52038 4.84042 5.58991 5.52646 4.90387C6.2125 4.21783 7.14297 3.83242 8.11317 3.83242C9.08338 3.83242 10.0138 4.21783 10.6999 4.90387C11.3859 5.58991 11.7713 6.52038 11.7713 7.49059ZM10.0268 5.98342C9.98904 5.94557 9.94419 5.91554 9.89481 5.89505C9.84543 5.87456 9.79249 5.86401 9.73902 5.86401C9.68556 5.86401 9.63262 5.87456 9.58324 5.89505C9.53386 5.91554 9.489 5.94557 9.45125 5.98342L7.30025 8.13524L6.7751 7.60927C6.73731 7.57148 6.69244 7.5415 6.64306 7.52105C6.59369 7.5006 6.54077 7.49007 6.48732 7.49007C6.43388 7.49007 6.38095 7.5006 6.33158 7.52105C6.2822 7.5415 6.23734 7.57148 6.19955 7.60927C6.16175 7.64706 6.13178 7.69193 6.11132 7.7413C6.09087 7.79068 6.08035 7.8436 6.08035 7.89705C6.08035 7.95049 6.09087 8.00341 6.11132 8.05279C6.13178 8.10217 6.16175 8.14703 6.19955 8.18482L7.01247 8.99775C7.05023 9.0356 7.09508 9.06563 7.14446 9.08612C7.19384 9.10662 7.24678 9.11716 7.30025 9.11716C7.35371 9.11716 7.40665 9.10662 7.45603 9.08612C7.50541 9.06563 7.55027 9.0356 7.58802 8.99775L10.0268 6.55897C10.0647 6.52122 10.0947 6.47636 10.1152 6.42698C10.1357 6.3776 10.1462 6.32466 10.1462 6.2712C10.1462 6.21773 10.1357 6.16479 10.1152 6.11541C10.0947 6.06603 10.0647 6.02118 10.0268 5.98342Z" fill="black"/>
</svg>
