<svg width="9" height="10" viewBox="0 0 9 10" fill="none" xmlns="http://www.w3.org/2000/svg">
<path d="M4.50378 0.645813C2.0307 0.645813 0.0186768 2.65783 0.0186768 5.13092V6.9891C0.0186768 7.44837 0.420991 7.82198 0.915698 7.82198H1.36421C1.48316 7.82198 1.59724 7.77473 1.68135 7.69062C1.76547 7.6065 1.81272 7.49242 1.81272 7.37347V5.06678C1.81272 4.94783 1.76547 4.83375 1.68135 4.74964C1.59724 4.66552 1.48316 4.61827 1.36421 4.61827H0.956961C1.20633 2.88254 2.69987 1.54283 4.50378 1.54283C6.30769 1.54283 7.80123 2.88254 8.0506 4.61827H7.64336C7.5244 4.61827 7.41032 4.66552 7.32621 4.74964C7.2421 4.83375 7.19485 4.94783 7.19485 5.06678V7.82198C7.19485 8.31669 6.79253 8.719 6.29782 8.719H5.4008V8.27049H3.60676V9.61602H6.29782C7.28724 9.61602 8.09187 8.8114 8.09187 7.82198C8.58657 7.82198 8.98889 7.44837 8.98889 6.9891V5.13092C8.98889 2.65783 6.97687 0.645813 4.50378 0.645813Z" fill="black"/>
</svg>
