<svg width="14" height="14" viewBox="0 0 14 14" fill="none" xmlns="http://www.w3.org/2000/svg">
<path d="M12.0201 11.5293C12.0201 11.678 11.961 11.8206 11.8559 11.9258C11.7507 12.0309 11.6081 12.09 11.4594 12.09H2.48923C2.34054 12.09 2.19794 12.0309 2.0928 11.9258C1.98766 11.8206 1.92859 11.678 1.92859 11.5293V2.55911C1.92859 2.41042 1.98766 2.26782 2.0928 2.16268C2.19794 2.05754 2.34054 1.99847 2.48923 1.99847H11.4594C11.6081 1.99847 11.7507 2.05754 11.8559 2.16268C11.961 2.26782 12.0201 2.41042 12.0201 2.55911V11.5293ZM6.41369 3.11975H3.04987V10.9687H6.41369V3.11975ZM10.8988 7.60486H7.53497V10.9687H10.8988V7.60486ZM10.8988 3.11975H7.53497V6.48358H10.8988V3.11975Z" fill="black"/>
</svg>
