<svg width="11" height="12" viewBox="0 0 11 12" fill="none" xmlns="http://www.w3.org/2000/svg">
<path d="M8.88208 5.45506V9.54948C8.88208 9.81712 8.77576 10.0738 8.5865 10.2631C8.39725 10.4523 8.14057 10.5586 7.87293 10.5586H3.16357C2.89592 10.5586 2.63924 10.4523 2.44999 10.2631C2.26074 10.0738 2.15442 9.81712 2.15442 9.54948V2.82182C2.15442 2.55417 2.26074 2.29749 2.44999 2.10824C2.63924 1.91899 2.89592 1.81267 3.16357 1.81267H5.23968C5.41805 1.81269 5.5891 1.88355 5.71524 2.00966L8.68508 4.9795C8.81119 5.10564 8.88205 5.2767 8.88208 5.45506Z" stroke="white" stroke-width="0.672766" stroke-linejoin="round"/>
<path d="M5.51822 1.98083V4.50371C5.51822 4.68214 5.5891 4.85326 5.71527 4.97942C5.84144 5.10559 6.01256 5.17647 6.19098 5.17647H8.71386M3.8363 6.85839H7.20013M3.8363 8.5403H7.20013" stroke="white" stroke-width="0.672766" stroke-linecap="round" stroke-linejoin="round"/>
</svg>
