<svg width="17" height="15" viewBox="0 0 17 15" fill="none" xmlns="http://www.w3.org/2000/svg">
<path d="M12.7439 6.60113C12.9594 6.97956 13.1197 7.37376 13.2249 7.78373C13.33 8.19369 13.3852 8.6168 13.3904 9.05305V9.8651L8.34468 12.3959L3.29893 9.8651C3.29893 9.54974 3.30156 9.2554 3.30681 8.98209C3.31207 8.70878 3.33572 8.44335 3.37777 8.18581C3.41982 7.92827 3.48289 7.67072 3.56699 7.41318C3.65108 7.15564 3.77723 6.88495 3.94542 6.60113L2.28978 5.77331V10.4012C2.44221 10.4538 2.57886 10.5274 2.69975 10.622C2.82064 10.7166 2.92838 10.8269 3.02299 10.9531C3.1176 11.0792 3.18593 11.2159 3.22798 11.3631C3.27002 11.5102 3.29367 11.6653 3.29893 11.8282V14.3511H0.271484V11.8282C0.271484 11.6705 0.295136 11.5181 0.34244 11.3709C0.389744 11.2238 0.458072 11.0845 0.547424 10.9531C0.636775 10.8217 0.741895 10.7113 0.862783 10.622C0.98367 10.5326 1.12295 10.459 1.28063 10.4012V5.26874L0.271484 4.76416L8.34468 0.72757L16.4179 4.76416L12.7439 6.60113ZM2.28978 11.8282C2.28978 11.6916 2.23985 11.5733 2.13999 11.4734C2.04012 11.3736 1.92186 11.3236 1.78521 11.3236C1.64855 11.3236 1.53029 11.3736 1.43043 11.4734C1.33057 11.5733 1.28063 11.6916 1.28063 11.8282V13.3419H2.28978V11.8282ZM2.5263 4.76416L8.34468 7.67335L14.163 4.76416L8.34468 1.85498L2.5263 4.76416ZM12.3813 9.24226C12.3813 8.83755 12.3419 8.46175 12.263 8.11485C12.1842 7.76796 12.0449 7.41318 11.8452 7.05052L8.34468 8.80076L4.84419 7.05052C4.67074 7.35536 4.53934 7.67598 4.44999 8.01236C4.36064 8.34875 4.31334 8.69564 4.30808 9.05305V9.24226L8.34468 11.2606L12.3813 9.24226Z" fill="black"/>
</svg>
