<svg width="12" height="15" viewBox="0 0 12 15" fill="none" xmlns="http://www.w3.org/2000/svg">
<path d="M5.94273 0.7276C6.37221 0.7276 6.79747 0.812191 7.19426 0.976544C7.59104 1.1409 7.95156 1.38179 8.25525 1.68547C8.55893 1.98916 8.79983 2.34968 8.96418 2.74647C9.12853 3.14325 9.21312 3.56852 9.21312 3.99799V5.30615H11.1754C11.3488 5.30615 11.5152 5.37506 11.6379 5.49772C11.7605 5.62038 11.8294 5.78675 11.8294 5.96022V13.8092C11.8294 13.9826 11.7605 14.149 11.6379 14.2717C11.5152 14.3943 11.3488 14.4632 11.1754 14.4632H0.710108C0.536636 14.4632 0.370269 14.3943 0.247605 14.2717C0.124942 14.149 0.0560303 13.9826 0.0560303 13.8092V5.96022C0.0560303 5.78675 0.124942 5.62038 0.247605 5.49772C0.370269 5.37506 0.536636 5.30615 0.710108 5.30615H2.67234V3.99799C2.67234 3.13063 3.0169 2.29879 3.63022 1.68547C4.24353 1.07216 5.07537 0.7276 5.94273 0.7276ZM9.21312 7.26838H7.90497V7.92246C7.90515 8.08917 7.96899 8.24952 8.08343 8.37074C8.19787 8.49197 8.35429 8.56492 8.52071 8.57469C8.68714 8.58446 8.85101 8.53031 8.97885 8.42331C9.10669 8.31631 9.18885 8.16453 9.20854 7.99898L9.21312 7.92246V7.26838ZM3.9805 7.26838H2.67234V7.92246C2.67253 8.08917 2.73636 8.24952 2.85081 8.37074C2.96525 8.49197 3.12166 8.56492 3.28809 8.57469C3.45451 8.58446 3.61839 8.53031 3.74623 8.42331C3.87407 8.31631 3.95623 8.16453 3.97592 7.99898L3.9805 7.92246V7.26838ZM5.94273 2.03576C5.44222 2.03573 4.96062 2.22696 4.59647 2.57032C4.23231 2.91369 4.01313 3.38323 3.98377 3.88287L3.9805 3.99799V5.30615H7.90497V3.99799C7.90499 3.49748 7.71376 3.01588 7.3704 2.65173C7.02703 2.28757 6.55749 2.06839 6.05785 2.03903L5.94273 2.03576Z" fill="black"/>
</svg>
