<svg width="16" height="16" viewBox="0 0 16 16" fill="none" xmlns="http://www.w3.org/2000/svg">
<path d="M8.92681 12.5962C8.92681 12.3797 8.95227 12.1696 8.98411 11.9595H3.1967V5.59274L8.29013 8.77613L13.3836 5.59274V8.83343C13.842 8.90983 14.2685 9.069 14.6569 9.29184V4.31938C14.6569 3.61903 14.0839 3.04602 13.3836 3.04602H3.1967C2.49635 3.04602 1.92334 3.61903 1.92334 4.31938V11.9595C1.92334 12.6599 2.49635 13.2329 3.1967 13.2329H8.98411C8.95227 13.0228 8.92681 12.8127 8.92681 12.5962ZM13.3836 4.31938L8.29013 7.50277L3.1967 4.31938H13.3836ZM12.1102 10.6862V11.9595H14.6569V13.2329H12.1102V14.5062L10.2002 12.5962L12.1102 10.6862Z" fill="black"/>
</svg>
