<svg width="8" height="5" viewBox="0 0 8 5" fill="none" xmlns="http://www.w3.org/2000/svg">
<path fill-rule="evenodd" clip-rule="evenodd" d="M6.39258 1.75234C6.60041 1.75234 6.79972 1.8349 6.94667 1.98185C7.09363 2.12881 7.17619 2.32812 7.17619 2.53595C7.17619 2.74377 7.09363 2.94308 6.94667 3.09004C6.79972 3.23699 6.60041 3.31955 6.39258 3.31955C6.18476 3.31955 5.98544 3.23699 5.83849 3.09004C5.69154 2.94308 5.60898 2.74377 5.60898 2.53595C5.60898 2.32812 5.69154 2.12881 5.83849 1.98185C5.98544 1.8349 6.18476 1.75234 6.39258 1.75234ZM2.92866 1.05493C2.87363 1.11003 2.84272 1.18472 2.84272 1.26259C2.84272 1.34046 2.87363 1.41515 2.92866 1.47024L3.70051 2.24209H1.2012C1.12327 2.24209 1.04852 2.27305 0.993416 2.32816C0.938308 2.38327 0.907349 2.45801 0.907349 2.53595C0.907349 2.61388 0.938308 2.68862 0.993416 2.74373C1.04852 2.79884 1.12327 2.8298 1.2012 2.8298H3.70051L2.92866 3.60165C2.87675 3.65735 2.84849 3.73103 2.84984 3.80716C2.85118 3.88328 2.88202 3.95592 2.93586 4.00976C2.9897 4.0636 3.06233 4.09444 3.13846 4.09578C3.21459 4.09712 3.28826 4.06886 3.34397 4.01696L4.61733 2.7436L4.82537 2.53595L4.61772 2.32829L3.34436 1.05493C3.31707 1.02763 3.28467 1.00596 3.249 0.991185C3.21334 0.976406 3.17511 0.968799 3.13651 0.968799C3.0979 0.968799 3.05968 0.976406 3.02401 0.991185C2.98835 1.00596 2.95595 1.02763 2.92866 1.05493Z" fill="black"/>
</svg>
