<svg width="9" height="8" viewBox="0 0 9 8" fill="none" xmlns="http://www.w3.org/2000/svg">
<path d="M8.36514 0.270056C8.2803 0.185811 8.17387 0.126587 8.05756 0.0988925C7.94124 0.0711985 7.81954 0.0761064 7.70583 0.113077L1.14412 2.30181C1.02243 2.34037 0.914893 2.41413 0.835095 2.51377C0.755297 2.61341 0.706817 2.73447 0.695779 2.86165C0.684741 2.98883 0.711639 3.11643 0.773077 3.22833C0.834515 3.34023 0.927736 3.43141 1.04097 3.49036L3.76343 4.83589L5.10896 7.56732C5.16304 7.67424 5.2458 7.764 5.34797 7.82657C5.45015 7.88915 5.56772 7.92207 5.68754 7.92165H5.73239C5.8607 7.9122 5.98321 7.86437 6.08399 7.78439C6.18477 7.7044 6.25917 7.59595 6.29751 7.47313L8.51764 0.929366C8.55728 0.816311 8.564 0.694321 8.537 0.577598C8.51 0.460875 8.4504 0.354222 8.36514 0.270056ZM1.4222 2.92075L7.14968 1.0101L3.96974 4.19004L1.4222 2.92075ZM5.71893 7.213L4.44516 4.66546L7.6251 1.48552L5.71893 7.213Z" fill="white"/>
</svg>
