<svg width="11" height="12" viewBox="0 0 11 12" fill="none" xmlns="http://www.w3.org/2000/svg">
<path d="M4.88379 4.88108L4.12506 4.1088L5.11412 3.11975H3.29858C3.21729 3.35459 3.09084 3.55782 2.91922 3.72944C2.7476 3.90106 2.54437 4.02751 2.30952 4.1088V8.63409C2.62566 8.75151 2.88544 8.94788 3.08885 9.22319C3.2919 9.49886 3.39343 9.81283 3.39343 10.1651C3.39343 10.6167 3.23536 11.0006 2.91922 11.3167C2.60308 11.6329 2.2192 11.791 1.76757 11.791C1.31595 11.791 0.932068 11.6329 0.61593 11.3167C0.299792 11.0006 0.141724 10.6167 0.141724 10.1651C0.141724 9.81283 0.243249 9.49886 0.4463 9.22319C0.649712 8.94788 0.909487 8.75151 1.22562 8.63409V4.1088C0.909487 3.99138 0.649712 3.79483 0.4463 3.51916C0.243249 3.24385 0.141724 2.93006 0.141724 2.57779C0.141724 2.12617 0.299792 1.74229 0.61593 1.42615C0.932068 1.11001 1.31595 0.951944 1.76757 0.951944C2.11984 0.951944 2.43381 1.05347 2.70948 1.25652C2.98479 1.45993 3.18116 1.71971 3.29858 2.03584H5.11412L4.12506 1.04678L4.88379 0.274506L7.18708 2.57779L4.88379 4.88108ZM9.35488 0.951944C9.8065 0.951944 10.1904 1.11001 10.5065 1.42615C10.8227 1.74229 10.9807 2.12617 10.9807 2.57779C10.9807 3.02942 10.8227 3.4133 10.5065 3.72944C10.1904 4.04558 9.8065 4.20365 9.35488 4.20365C8.90325 4.20365 8.51937 4.04558 8.20323 3.72944C7.8871 3.4133 7.72903 3.02942 7.72903 2.57779C7.72903 2.12617 7.8871 1.74229 8.20323 1.42615C8.51937 1.11001 8.90325 0.951944 9.35488 0.951944ZM7.40386 6.58823L9.6936 8.87797L6.78061 11.791H4.47733V9.48766L7.40386 6.58823ZM10.2762 8.30892L7.95936 5.99208L8.36582 5.59917C8.5826 5.38239 8.84237 5.274 9.14514 5.274C9.44755 5.274 9.70263 5.38239 9.91038 5.59917L10.6691 6.37145C10.8769 6.57919 10.9807 6.8321 10.9807 7.13018C10.9807 7.42825 10.8769 7.68116 10.6691 7.88891L10.2762 8.30892Z" fill="black"/>
</svg>
