<svg width="14" height="15" viewBox="0 0 14 15" fill="none" xmlns="http://www.w3.org/2000/svg">
<path d="M11.8582 2.99166C11.2243 2.35133 10.4692 1.84362 9.63703 1.49816C8.80484 1.1527 7.91218 0.976394 7.01114 0.979533C3.2358 0.979533 0.158832 4.0565 0.158832 7.83184C0.158832 9.04188 0.476901 10.2174 1.07155 11.2545L0.103516 14.8086L3.73365 13.8544C4.73626 14.4007 5.86333 14.6911 7.01114 14.6911C10.7865 14.6911 13.8634 11.6141 13.8634 7.83876C13.8634 6.0064 13.1512 4.28468 11.8582 2.99166ZM7.01114 13.5294C5.98779 13.5294 4.98518 13.2528 4.10703 12.7342L3.8996 12.6098L1.74226 13.1768L2.31617 11.0748L2.17788 10.8604C1.60933 9.95251 1.30743 8.90307 1.30665 7.83184C1.30665 4.69264 3.86502 2.13426 7.00422 2.13426C8.52542 2.13426 9.95673 2.72891 11.0285 3.80758C11.5592 4.33582 11.9797 4.96415 12.2658 5.65613C12.5518 6.34811 12.6977 7.08999 12.6949 7.83876C12.7087 10.978 10.1503 13.5294 7.01114 13.5294ZM10.1365 9.27006C9.96365 9.18709 9.12007 8.77222 8.96795 8.70999C8.80892 8.65467 8.69829 8.62701 8.58074 8.79296C8.46319 8.96582 8.13821 9.35304 8.04141 9.46367C7.9446 9.58122 7.84088 9.59505 7.66802 9.50516C7.49516 9.42218 6.94199 9.23549 6.29203 8.65467C5.78035 8.19831 5.44154 7.63823 5.33782 7.46537C5.24102 7.29251 5.32399 7.20262 5.41388 7.11273C5.48994 7.03667 5.58674 6.91221 5.66972 6.8154C5.75269 6.7186 5.78727 6.64254 5.84258 6.53191C5.8979 6.41436 5.87024 6.31756 5.82875 6.23458C5.78727 6.15161 5.44154 5.30803 5.30325 4.96231C5.16496 4.63041 5.01975 4.6719 4.91603 4.66498H4.58414C4.46659 4.66498 4.28681 4.70647 4.12778 4.87933C3.97566 5.0522 3.53313 5.46707 3.53313 6.31064C3.53313 7.15422 4.14852 7.97013 4.23149 8.08076C4.31447 8.19831 5.44154 9.92695 7.15634 10.6668C7.5643 10.8466 7.88237 10.9503 8.13129 11.0264C8.53925 11.1577 8.91264 11.137 9.20996 11.0955C9.54186 11.0471 10.2264 10.6806 10.3647 10.2796C10.5099 9.87854 10.5099 9.53973 10.4615 9.46367C10.4131 9.38761 10.3094 9.35304 10.1365 9.27006Z" fill="black"/>
</svg>
